<?xml version="1.0" standalone="no"?>
<!DOCTYPE svg PUBLIC "-//W3C//DTD SVG 20010904//EN"
 "http://www.w3.org/TR/2001/REC-SVG-20010904/DTD/svg10.dtd">
<svg version="1.0" xmlns="http://www.w3.org/2000/svg"
 width="160.000000pt" height="160.000000pt" viewBox="0 0 160.000000 160.000000"
 preserveAspectRatio="xMidYMid meet">
<metadata>
Created by potrace 1.14, written by Peter Selinger 2001-2017
</metadata>
<g transform="translate(0.000000,160.000000) scale(0.100000,-0.100000)"
fill="#000000" stroke="none">
<path d="M242 1557 c-112 -40 -193 -124 -226 -237 -14 -47 -16 -116 -16 -480
1 -238 5 -445 11 -470 36 -168 185 -315 353 -350 36 -7 207 -10 522 -8 l469 3
57 28 c70 34 121 85 156 157 l27 55 0 540 c0 534 0 541 -22 587 -30 66 -104
141 -166 169 l-52 24 -525 2 c-520 2 -526 2 -588 -20z"/>
</g>
</svg>
