<svg width="80" height="14" viewBox="0 0 80 14" fill="none" xmlns="http://www.w3.org/2000/svg">
<path d="M5.998 3.594C7.07133 3.594 7.93 3.79467 8.574 4.196C9.218 4.588 9.54 5.19 9.54 6.002C9.54 6.31 9.484 6.66 9.372 7.052L8.798 8.984C8.78867 9.02133 8.784 9.068 8.784 9.124C8.784 9.27333 8.84467 9.348 8.966 9.348C9.078 9.348 9.17133 9.30133 9.246 9.208C9.33 9.10533 9.386 9.054 9.414 9.054C9.46067 9.054 9.498 9.08667 9.526 9.152C9.56333 9.21733 9.582 9.292 9.582 9.376C9.59133 9.628 9.49333 9.88467 9.288 10.146C9.092 10.4073 8.826 10.622 8.49 10.79C8.154 10.958 7.78533 11.042 7.384 11.042C6.89867 11.042 6.48333 10.9533 6.138 10.776C5.79267 10.5987 5.55467 10.3373 5.424 9.992C5.144 10.328 4.81267 10.5893 4.43 10.776C4.04733 10.9533 3.63667 11.042 3.198 11.042C2.70333 11.042 2.288 10.9487 1.952 10.762C1.616 10.566 1.364 10.3187 1.196 10.02C1.03733 9.712 0.958 9.39 0.958 9.054C0.958 8.90467 0.972 8.76 1 8.62C1.14933 7.976 1.47133 7.49067 1.966 7.164C2.47 6.83733 3.06733 6.674 3.758 6.674C4.53267 6.674 5.29333 6.79533 6.04 7.038L6.39 6.114C6.51133 5.722 6.572 5.41867 6.572 5.204C6.56267 4.98 6.488 4.812 6.348 4.7C6.208 4.588 5.99333 4.532 5.704 4.532C5.76 4.68133 5.788 4.83533 5.788 4.994C5.788 5.33933 5.65733 5.638 5.396 5.89C5.13467 6.142 4.76133 6.268 4.276 6.268C3.81867 6.268 3.45933 6.17 3.198 5.974C2.946 5.76867 2.82 5.51667 2.82 5.218C2.82 4.75133 3.08133 4.364 3.604 4.056C4.12667 3.748 4.92467 3.594 5.998 3.594ZM5.214 7.836C4.95267 7.836 4.738 7.93867 4.57 8.144C4.41133 8.34 4.332 8.55467 4.332 8.788C4.332 8.93733 4.36467 9.05867 4.43 9.152C4.50467 9.24533 4.60733 9.292 4.738 9.292C4.85933 9.292 4.99 9.24533 5.13 9.152C5.27933 9.04933 5.38667 8.9 5.452 8.704L5.746 7.878C5.58733 7.85 5.41 7.836 5.214 7.836ZM17.4822 3.538C18.2008 3.538 18.7655 3.776 19.1762 4.252C19.5868 4.728 19.7922 5.37667 19.7922 6.198C19.7922 6.63667 19.7315 7.09867 19.6102 7.584C19.3302 8.74133 18.8075 9.62333 18.0422 10.23C17.2768 10.8273 16.3902 11.126 15.3822 11.126C14.7382 11.126 14.1782 10.9907 13.7022 10.72L13.2542 12.218C13.2168 12.3207 13.1982 12.4187 13.1982 12.512C13.1982 12.6147 13.2215 12.6987 13.2682 12.764C13.3148 12.8387 13.3755 12.9087 13.4502 12.974C13.5248 13.0487 13.5715 13.1093 13.5902 13.156C13.6182 13.2027 13.6228 13.2587 13.6042 13.324C13.5668 13.4453 13.4782 13.5293 13.3382 13.576C13.1982 13.632 12.9835 13.66 12.6942 13.66H9.48816C9.24549 13.66 9.07282 13.618 8.97016 13.534C8.85816 13.4593 8.82549 13.3613 8.87216 13.24C8.89082 13.1653 8.92349 13.1047 8.97016 13.058C9.01682 13.0113 9.08216 12.9693 9.16616 12.932C9.30616 12.8387 9.41816 12.7407 9.50216 12.638C9.58616 12.5447 9.66082 12.3907 9.72616 12.176L11.7702 5.47C11.7982 5.386 11.8122 5.316 11.8122 5.26C11.8122 5.15733 11.7888 5.078 11.7422 5.022C11.6955 4.95667 11.6255 4.89133 11.5322 4.826C11.4388 4.75133 11.3735 4.686 11.3362 4.63C11.2988 4.574 11.2942 4.49933 11.3222 4.406C11.3782 4.19133 11.6722 4.00467 12.2042 3.846C12.7362 3.678 13.2915 3.594 13.8702 3.594C14.2808 3.594 14.6168 3.69667 14.8782 3.902C15.1488 4.10733 15.3028 4.392 15.3402 4.756C15.9748 3.944 16.6888 3.538 17.4822 3.538ZM15.8582 7.696C16.0822 6.86533 16.1942 6.29133 16.1942 5.974C16.1942 5.778 16.1615 5.652 16.0962 5.596C16.0402 5.53067 15.9562 5.498 15.8442 5.498C15.7602 5.498 15.6528 5.54 15.5222 5.624C15.3915 5.69867 15.2608 5.82933 15.1302 6.016L14.0242 9.684C14.1362 9.796 14.2715 9.852 14.4302 9.852C14.6822 9.852 14.9202 9.712 15.1442 9.432C15.3775 9.14267 15.6155 8.564 15.8582 7.696ZM27.1618 3.538C27.8805 3.538 28.4452 3.776 28.8558 4.252C29.2665 4.728 29.4718 5.37667 29.4718 6.198C29.4718 6.63667 29.4112 7.09867 29.2898 7.584C29.0098 8.74133 28.4872 9.62333 27.7218 10.23C26.9565 10.8273 26.0698 11.126 25.0618 11.126C24.4178 11.126 23.8578 10.9907 23.3818 10.72L22.9338 12.218C22.8965 12.3207 22.8778 12.4187 22.8778 12.512C22.8778 12.6147 22.9012 12.6987 22.9478 12.764C22.9945 12.8387 23.0552 12.9087 23.1298 12.974C23.2045 13.0487 23.2512 13.1093 23.2698 13.156C23.2978 13.2027 23.3025 13.2587 23.2838 13.324C23.2465 13.4453 23.1578 13.5293 23.0178 13.576C22.8778 13.632 22.6632 13.66 22.3738 13.66H19.1678C18.9252 13.66 18.7525 13.618 18.6498 13.534C18.5378 13.4593 18.5052 13.3613 18.5518 13.24C18.5705 13.1653 18.6032 13.1047 18.6498 13.058C18.6965 13.0113 18.7618 12.9693 18.8458 12.932C18.9858 12.8387 19.0978 12.7407 19.1818 12.638C19.2658 12.5447 19.3405 12.3907 19.4058 12.176L21.4498 5.47C21.4778 5.386 21.4918 5.316 21.4918 5.26C21.4918 5.15733 21.4685 5.078 21.4218 5.022C21.3752 4.95667 21.3052 4.89133 21.2118 4.826C21.1185 4.75133 21.0532 4.686 21.0158 4.63C20.9785 4.574 20.9738 4.49933 21.0018 4.406C21.0578 4.19133 21.3518 4.00467 21.8838 3.846C22.4158 3.678 22.9712 3.594 23.5498 3.594C23.9605 3.594 24.2965 3.69667 24.5578 3.902C24.8285 4.10733 24.9825 4.392 25.0198 4.756C25.6545 3.944 26.3685 3.538 27.1618 3.538ZM25.5378 7.696C25.7618 6.86533 25.8738 6.29133 25.8738 5.974C25.8738 5.778 25.8412 5.652 25.7758 5.596C25.7198 5.53067 25.6358 5.498 25.5238 5.498C25.4398 5.498 25.3325 5.54 25.2018 5.624C25.0712 5.69867 24.9405 5.82933 24.8098 6.016L23.7038 9.684C23.8158 9.796 23.9512 9.852 24.1098 9.852C24.3618 9.852 24.5998 9.712 24.8238 9.432C25.0572 9.14267 25.2952 8.564 25.5378 7.696ZM36.6595 3.538C37.3502 3.538 37.9009 3.78533 38.3115 4.28C38.7315 4.77467 38.9415 5.428 38.9415 6.24C38.9415 6.66 38.8902 7.07067 38.7875 7.472C38.4889 8.676 37.9755 9.586 37.2475 10.202C36.5289 10.818 35.6982 11.126 34.7555 11.126C34.2235 11.126 33.7615 11.0373 33.3695 10.86C32.9869 10.6733 32.6789 10.412 32.4455 10.076L31.9415 10.51C31.7455 10.678 31.5542 10.804 31.3675 10.888C31.1809 10.9627 30.9662 11 30.7235 11H30.1075C29.8742 11 29.6922 10.9533 29.5615 10.86C29.4402 10.7573 29.3795 10.6127 29.3795 10.426C29.3795 10.342 29.3935 10.244 29.4215 10.132L31.7595 2.53C31.7875 2.446 31.8015 2.376 31.8015 2.32C31.8015 2.16133 31.7035 2.012 31.5075 1.872C31.4142 1.788 31.3489 1.72267 31.3115 1.676C31.2742 1.62 31.2695 1.55 31.2975 1.466C31.3629 1.25133 31.6569 1.06467 32.1795 0.906C32.7115 0.738 33.2669 0.654 33.8455 0.654C34.3869 0.654 34.7835 0.761333 35.0355 0.976C35.2969 1.18133 35.4275 1.46133 35.4275 1.816C35.4275 2.012 35.3949 2.208 35.3295 2.404L34.7415 4.308C35.2829 3.79467 35.9222 3.538 36.6595 3.538ZM35.0775 7.388C35.2642 6.75333 35.3575 6.24 35.3575 5.848C35.3575 5.41867 35.2315 5.204 34.9795 5.204C34.7555 5.204 34.5455 5.32067 34.3495 5.554L33.4395 8.522L33.3555 8.788C33.3089 8.928 33.2855 9.07267 33.2855 9.222C33.2855 9.54867 33.4395 9.712 33.7475 9.712C33.9715 9.712 34.1862 9.54867 34.3915 9.222C34.5969 8.89533 34.8255 8.284 35.0775 7.388ZM43.4601 0.654C44.0015 0.654 44.3981 0.756666 44.6501 0.962C44.9115 1.16733 45.0421 1.44733 45.0421 1.802C45.0421 2.00733 45.0095 2.208 44.9441 2.404L42.7461 9.544C42.7181 9.656 42.7041 9.754 42.7041 9.838C42.7041 9.95933 42.7275 10.0573 42.7741 10.132C42.8208 10.1973 42.8861 10.2627 42.9701 10.328C43.0355 10.3933 43.0821 10.4493 43.1101 10.496C43.1381 10.5333 43.1428 10.5847 43.1241 10.65C43.0775 10.7713 42.9841 10.86 42.8441 10.916C42.7041 10.972 42.4895 11 42.2001 11H39.0081C38.7655 11 38.5881 10.9627 38.4761 10.888C38.3641 10.804 38.3268 10.6967 38.3641 10.566C38.4015 10.454 38.4995 10.356 38.6581 10.272C38.7981 10.1973 38.9148 10.1087 39.0081 10.006C39.1015 9.90333 39.1808 9.74 39.2461 9.516L41.3741 2.53C41.4021 2.446 41.4161 2.376 41.4161 2.32C41.4161 2.21733 41.3881 2.13333 41.3321 2.068C41.2855 2.00267 41.2201 1.93733 41.1361 1.872C41.0428 1.79733 40.9728 1.732 40.9261 1.676C40.8888 1.62 40.8841 1.54533 40.9121 1.452C40.9681 1.23733 41.2621 1.05067 41.7941 0.891999C42.3261 0.733333 42.8815 0.654 43.4601 0.654ZM49.5391 3.594C50.8084 3.594 51.7418 3.85067 52.3391 4.364C52.9458 4.87733 53.2491 5.54933 53.2491 6.38C53.2491 6.66 53.2118 6.97267 53.1371 7.318C52.9598 8.08333 52.6284 8.75533 52.1431 9.334C51.6578 9.90333 51.0604 10.3467 50.3511 10.664C49.6511 10.972 48.8904 11.126 48.0691 11.126C46.7718 11.126 45.8104 10.8693 45.1851 10.356C44.5691 9.83333 44.2611 9.14267 44.2611 8.284C44.2611 7.99467 44.2984 7.67267 44.3731 7.318C44.5504 6.59 44.8864 5.946 45.3811 5.386C45.8851 4.81667 46.4964 4.378 47.2151 4.07C47.9431 3.75267 48.7178 3.594 49.5391 3.594ZM49.4971 4.84C49.3011 4.84 49.0911 5.01733 48.8671 5.372C48.6524 5.71733 48.3958 6.37533 48.0971 7.346C47.7984 8.31667 47.6491 8.998 47.6491 9.39C47.6491 9.59533 47.6818 9.73533 47.7471 9.81C47.8124 9.87533 47.9011 9.908 48.0131 9.908C48.2091 9.92667 48.4098 9.75867 48.6151 9.404C48.8298 9.04933 49.0958 8.35867 49.4131 7.332C49.7024 6.42667 49.8471 5.76867 49.8471 5.358C49.8471 5.162 49.8144 5.02667 49.7491 4.952C49.6931 4.87733 49.6091 4.84 49.4971 4.84ZM58.3906 3.524C58.9599 3.524 59.4593 3.608 59.8886 3.776C60.3179 3.93467 60.6493 4.15867 60.8826 4.448C61.1253 4.728 61.2466 5.04067 61.2466 5.386C61.2466 5.75933 61.1159 6.06733 60.8546 6.31C60.6026 6.55267 60.2573 6.674 59.8186 6.674C59.3706 6.674 59.0206 6.562 58.7686 6.338C58.5166 6.10467 58.3906 5.792 58.3906 5.4C58.3906 5.21333 58.4186 5.01733 58.4746 4.812C58.0826 4.91467 57.7326 5.12 57.4246 5.428C57.1259 5.72667 56.9253 6.12333 56.8226 6.618C56.7666 6.898 56.7386 7.15 56.7386 7.374C56.7386 7.878 56.8786 8.26067 57.1586 8.522C57.4386 8.78333 57.8399 8.914 58.3626 8.914C58.6613 8.914 58.9179 8.886 59.1326 8.83C59.3473 8.76467 59.5666 8.68067 59.7906 8.578C59.9773 8.48467 60.1126 8.438 60.1966 8.438C60.2526 8.438 60.2899 8.452 60.3086 8.48C60.3273 8.49867 60.3366 8.54533 60.3366 8.62C60.3459 8.96533 60.2013 9.32933 59.9026 9.712C59.6133 10.0853 59.2073 10.4027 58.6846 10.664C58.1713 10.916 57.5926 11.042 56.9486 11.042C56.2766 11.042 55.6793 10.9207 55.1566 10.678C54.6433 10.426 54.2419 10.0713 53.9526 9.614C53.6726 9.14733 53.5326 8.606 53.5326 7.99C53.5326 7.70067 53.5699 7.37867 53.6446 7.024C53.8966 5.86667 54.4519 4.994 55.3106 4.406C56.1786 3.818 57.2053 3.524 58.3906 3.524ZM69.1985 3.594C69.7305 3.594 70.1552 3.74333 70.4725 4.042C70.7992 4.33133 70.9625 4.686 70.9625 5.106C70.9625 5.554 70.8272 5.904 70.5565 6.156C70.2858 6.408 69.9312 6.534 69.4925 6.534C69.1005 6.534 68.7972 6.436 68.5825 6.24C68.3678 6.03467 68.2652 5.806 68.2745 5.554C68.1812 5.53533 68.1018 5.57267 68.0365 5.666C67.9712 5.75933 67.9012 5.94133 67.8265 6.212C67.7798 6.38933 67.6912 6.55267 67.5605 6.702C68.1952 6.74867 68.6665 6.89333 68.9745 7.136C69.2825 7.37867 69.4365 7.69133 69.4365 8.074C69.4365 8.26067 69.4038 8.44733 69.3385 8.634L69.2265 9.068C69.2078 9.11467 69.1985 9.17533 69.1985 9.25C69.1985 9.38067 69.2592 9.446 69.3805 9.446C69.4925 9.446 69.5858 9.39933 69.6605 9.306C69.7445 9.20333 69.8005 9.152 69.8285 9.152C69.8752 9.152 69.9125 9.18467 69.9405 9.25C69.9685 9.306 69.9825 9.376 69.9825 9.46C69.9918 9.73067 69.9078 9.99667 69.7305 10.258C69.5625 10.51 69.3012 10.72 68.9465 10.888C68.6012 11.0467 68.1812 11.126 67.6865 11.126C67.0892 11.126 66.5898 10.9767 66.1885 10.678C65.7965 10.3793 65.6005 9.98733 65.6005 9.502C65.6005 9.32467 65.6378 9.124 65.7125 8.9L65.9785 8.2C66.0252 8.032 66.0485 7.91067 66.0485 7.836C66.0485 7.71467 66.0065 7.626 65.9225 7.57C65.8478 7.514 65.7265 7.486 65.5585 7.486H65.2785L64.6485 9.544C64.6205 9.656 64.6065 9.754 64.6065 9.838C64.6065 9.95933 64.6298 10.0573 64.6765 10.132C64.7232 10.1973 64.7885 10.2627 64.8725 10.328C64.9378 10.3933 64.9845 10.4493 65.0125 10.496C65.0405 10.5333 65.0452 10.5847 65.0265 10.65C64.9798 10.7713 64.8865 10.86 64.7465 10.916C64.6065 10.972 64.3918 11 64.1025 11H60.9105C60.6678 11 60.4905 10.9627 60.3785 10.888C60.2665 10.804 60.2292 10.6967 60.2665 10.566C60.3038 10.454 60.4018 10.356 60.5605 10.272C60.7005 10.1973 60.8172 10.1087 60.9105 10.006C61.0038 9.90333 61.0832 9.74 61.1485 9.516L63.2765 2.53C63.3045 2.446 63.3185 2.376 63.3185 2.32C63.3185 2.21733 63.2905 2.13333 63.2345 2.068C63.1878 2.00267 63.1225 1.93733 63.0385 1.872C62.9452 1.79733 62.8752 1.732 62.8285 1.676C62.7912 1.62 62.7865 1.54533 62.8145 1.452C62.8705 1.23733 63.1645 1.05067 63.6965 0.891999C64.2285 0.733333 64.7838 0.654 65.3625 0.654C65.9038 0.654 66.3005 0.756666 66.5525 0.962C66.8045 1.158 66.9305 1.43333 66.9305 1.788C66.9305 2.00267 66.8978 2.208 66.8325 2.404L65.6145 6.38H66.0765C66.2632 6.38 66.4125 6.324 66.5245 6.212C66.6458 6.1 66.7392 5.93667 66.8045 5.722C67.0378 5.03133 67.3412 4.504 67.7145 4.14C68.0878 3.776 68.5825 3.594 69.1985 3.594ZM75.2915 3.468C76.0662 3.468 76.7335 3.538 77.2935 3.678C77.8629 3.818 78.2969 4.014 78.5955 4.266C78.9035 4.518 79.0575 4.80267 79.0575 5.12C79.0575 5.44667 78.9269 5.71267 78.6655 5.918C78.4135 6.12333 78.0589 6.226 77.6015 6.226C77.1349 6.226 76.7382 6.10933 76.4115 5.876C76.0942 5.64267 75.9355 5.34867 75.9355 4.994C75.9355 4.87267 75.9542 4.756 75.9915 4.644C75.8235 4.59733 75.6742 4.574 75.5435 4.574C75.3102 4.574 75.1142 4.63 74.9555 4.742C74.8062 4.854 74.7362 5.01267 74.7455 5.218C74.7455 5.46067 74.8669 5.666 75.1095 5.834C75.3522 6.002 75.7442 6.212 76.2855 6.464C76.7522 6.66933 77.1349 6.86067 77.4335 7.038C77.7415 7.206 77.9982 7.42067 78.2035 7.682C78.4182 7.94333 78.5255 8.25133 78.5255 8.606C78.5255 8.68067 78.5069 8.82067 78.4695 9.026C78.3202 9.65133 77.9049 10.146 77.2235 10.51C76.5422 10.874 75.6462 11.056 74.5355 11.056C73.2849 11.056 72.2909 10.888 71.5535 10.552C70.8255 10.216 70.4615 9.754 70.4615 9.166C70.4615 8.76467 70.5829 8.46133 70.8255 8.256C71.0682 8.05067 71.3902 7.948 71.7915 7.948C72.2582 7.948 72.6549 8.09267 72.9815 8.382C73.3175 8.67133 73.4855 9.04 73.4855 9.488C73.4855 9.60933 73.4715 9.73533 73.4435 9.866C73.6675 9.922 73.8822 9.95 74.0875 9.95C74.3302 9.95 74.5309 9.88467 74.6895 9.754C74.8482 9.62333 74.9275 9.44133 74.9275 9.208C74.9182 8.99333 74.8109 8.81133 74.6055 8.662C74.4002 8.50333 74.0735 8.31667 73.6255 8.102C73.2055 7.906 72.8602 7.724 72.5895 7.556C72.3189 7.37867 72.0855 7.15933 71.8895 6.898C71.7029 6.63667 71.6095 6.32867 71.6095 5.974C71.6095 5.20867 71.9269 4.602 72.5615 4.154C73.2055 3.69667 74.1155 3.468 75.2915 3.468Z" fill="#333333"/>
</svg>
